<svg width="308" height="308" xmlns="http://www.w3.org/2000/svg" xmlns:xlink="http://www.w3.org/1999/xlink" xml:space="preserve" overflow="hidden"><defs><clipPath id="clip0"><rect x="782" y="13" width="308" height="308"/></clipPath><clipPath id="clip1"><path d="M782.371 153.57 922.763 13.1783 1089.46 179.877 949.07 320.268Z" fill-rule="evenodd" clip-rule="evenodd"/></clipPath><clipPath id="clip2"><path d="M782.371 153.57 922.763 13.1784 1089.46 179.877 949.07 320.268Z" fill-rule="evenodd" clip-rule="evenodd"/></clipPath><clipPath id="clip3"><path d="M760.252 170.331 920.083 10.4988 1089.46 179.877 929.63 339.709Z" fill-rule="evenodd" clip-rule="evenodd"/></clipPath></defs><g clip-path="url(#clip0)" transform="translate(-782 -13)"><g clip-path="url(#clip1)"><g clip-path="url(#clip2)"><g clip-path="url(#clip3)"><path d="M262.552 286.974 269.294 273.491 276.035 259.975 284.132 272.598 292.228 285.222 277.39 286.081Z" fill="#231F20" transform="matrix(0.707107 -0.707107 0.707711 0.707711 679.75 183.298)"/><path d="M264.106 274.515C263.94 274.515 263.775 274.482 263.61 274.449 260.338 273.458 257.199 271.938 254.258 269.955 253.498 269.459 253.299 268.435 253.795 267.675 254.291 266.915 255.315 266.716 256.075 267.212 258.752 268.996 261.594 270.351 264.535 271.277 265.394 271.541 265.89 272.466 265.626 273.359 265.461 274.053 264.8 274.515 264.106 274.515ZM247.781 263.676C247.318 263.676 246.855 263.478 246.525 263.114 244.245 260.504 242.328 257.595 240.808 254.522 240.411 253.696 240.742 252.705 241.568 252.308 242.394 251.912 243.386 252.242 243.782 253.068 245.17 255.877 246.955 258.554 249.037 260.966 249.631 261.66 249.565 262.685 248.871 263.312 248.541 263.544 248.177 263.676 247.781 263.676ZM239.189 246.062C238.396 246.062 237.702 245.501 237.569 244.707 237.173 242.626 236.975 240.478 236.975 238.396 236.975 237.702 237.008 236.975 237.041 236.281 237.074 235.62 237.14 234.992 237.206 234.364 237.305 233.439 238.131 232.811 239.023 232.91 239.916 233.009 240.577 233.835 240.478 234.727 240.411 235.322 240.345 235.917 240.312 236.512 240.279 237.14 240.246 237.768 240.246 238.396 240.246 240.279 240.411 242.229 240.775 244.113 240.94 245.005 240.345 245.864 239.453 246.029 239.387 246.062 239.288 246.062 239.189 246.062ZM240.874 226.499C240.742 226.499 240.577 226.466 240.444 226.433 239.552 226.202 239.057 225.276 239.288 224.384 239.618 223.194 239.982 221.972 240.312 220.782 240.874 218.898 241.403 216.982 241.899 215.065L243.551 215.263 245.104 215.825C244.608 217.808 244.047 219.758 243.485 221.674 243.154 222.864 242.791 224.054 242.46 225.243 242.262 226.036 241.601 226.499 240.874 226.499ZM245.434 207.233C245.368 207.233 245.269 207.233 245.203 207.233 244.311 207.101 243.683 206.275 243.815 205.349 244.278 202.177 244.542 198.905 244.674 195.667 244.707 194.742 245.368 194.147 246.393 194.081 247.318 194.114 248.012 194.874 247.979 195.799 247.847 199.17 247.549 202.54 247.087 205.845 246.955 206.638 246.261 207.233 245.434 207.233ZM123.428 199.599C122.668 199.599 121.974 199.071 121.808 198.277 121.61 197.385 122.205 196.493 123.064 196.328 125.906 195.733 128.781 194.51 131.656 192.759 132.449 192.296 133.441 192.527 133.936 193.321 134.399 194.114 134.168 195.105 133.375 195.601 130.169 197.55 126.931 198.905 123.725 199.566 123.659 199.599 123.56 199.599 123.428 199.599ZM113.646 199.302C113.481 199.302 113.316 199.269 113.15 199.236 112.522 199.038 111.895 198.806 111.234 198.542 108.524 197.385 106.145 195.667 104.162 193.42 103.567 192.726 103.633 191.701 104.294 191.106 104.955 190.512 106.012 190.545 106.64 191.239 108.293 193.089 110.275 194.543 112.522 195.502 113.051 195.733 113.58 195.931 114.109 196.063 114.968 196.328 115.464 197.253 115.199 198.145 115.001 198.839 114.34 199.302 113.646 199.302ZM140.281 189.652C139.852 189.652 139.455 189.487 139.125 189.19 138.464 188.562 138.464 187.504 139.092 186.843 139.62 186.315 140.083 185.786 140.579 185.257 142.033 183.605 143.52 181.721 145.205 179.375 145.734 178.648 146.791 178.483 147.518 179.012 148.245 179.54 148.411 180.598 147.882 181.325 146.097 183.77 144.577 185.687 143.057 187.438 142.528 188.033 142 188.595 141.438 189.19 141.141 189.487 140.711 189.652 140.281 189.652ZM246.161 187.471C245.302 187.471 244.575 186.81 244.509 185.918 244.278 182.68 243.881 179.408 243.32 176.269 243.154 175.376 243.749 174.517 244.674 174.352 245.534 174.187 246.426 174.782 246.591 175.707 247.186 178.978 247.582 182.349 247.814 185.72 247.88 186.645 247.186 187.405 246.294 187.471 246.228 187.471 246.195 187.471 246.161 187.471ZM100.692 185.389C99.9979 185.389 99.337 184.96 99.1057 184.266 98.1143 181.226 97.4864 177.789 97.2221 174.121 97.156 173.195 97.8499 172.435 98.7752 172.369 99.6344 172.303 100.461 172.997 100.527 173.922 100.758 177.326 101.32 180.432 102.245 183.241 102.543 184.101 102.047 185.026 101.188 185.323 101.022 185.356 100.857 185.389 100.692 185.389ZM152.277 173.889C151.947 173.889 151.616 173.79 151.319 173.592 150.592 173.063 150.393 172.039 150.922 171.279 152.541 168.999 154.689 166.057 157.102 163.315 157.697 162.621 158.754 162.554 159.448 163.182 160.142 163.777 160.208 164.835 159.58 165.529 157.3 168.139 155.284 170.882 153.599 173.228 153.302 173.658 152.806 173.889 152.277 173.889ZM242.626 168.007C241.932 168.007 241.271 167.578 241.039 166.884 239.982 163.612 238.66 160.704 237.14 158.225 236.644 157.465 236.909 156.441 237.669 155.945 238.429 155.483 239.453 155.714 239.949 156.474 241.601 159.151 243.055 162.323 244.179 165.826 244.443 166.685 243.98 167.611 243.121 167.908 242.956 167.974 242.791 168.007 242.626 168.007ZM99.1718 165.76C99.1057 165.76 99.0396 165.76 98.9735 165.76 98.0813 165.661 97.4203 164.835 97.5195 163.942L97.6516 162.819C98.1143 159.514 98.7091 156.639 99.4362 153.962 99.6675 153.07 100.56 152.575 101.452 152.806 102.344 153.037 102.84 153.962 102.609 154.822 101.915 157.333 101.386 160.109 100.923 163.281L100.791 164.306C100.725 165.132 99.9979 165.76 99.1718 165.76ZM165.628 159.349C165.132 159.349 164.636 159.118 164.306 158.688 163.777 157.961 163.909 156.904 164.669 156.375 167.346 154.425 170.32 152.707 173.526 151.253 174.352 150.856 175.343 151.253 175.707 152.079 176.07 152.905 175.707 153.896 174.881 154.26 171.874 155.615 169.098 157.234 166.619 159.052 166.289 159.25 165.958 159.349 165.628 159.349ZM231.952 151.682C231.621 151.682 231.291 151.583 230.993 151.352 230.068 150.658 229.044 150.063 228.019 149.567 226.4 148.807 224.615 148.245 222.6 147.882 221.707 147.717 221.112 146.858 221.278 145.965 221.443 145.073 222.269 144.478 223.194 144.643 225.508 145.073 227.523 145.701 229.44 146.593 230.663 147.188 231.852 147.882 232.943 148.675 233.67 149.204 233.835 150.261 233.306 150.988 232.943 151.451 232.447 151.682 231.952 151.682ZM183.506 151.12C182.779 151.12 182.118 150.625 181.92 149.898 181.688 149.006 182.217 148.113 183.076 147.882 186.116 147.056 189.355 146.395 192.957 145.833 193.849 145.701 194.708 146.329 194.841 147.221 194.973 148.113 194.345 148.972 193.453 149.105 189.983 149.633 186.843 150.294 183.935 151.054 183.803 151.087 183.671 151.12 183.506 151.12ZM203.069 148.014C202.21 148.014 201.483 147.353 201.417 146.494 201.351 145.569 202.012 144.776 202.937 144.71 205.382 144.511 207.795 144.379 210.207 144.247 211.099 144.214 212.025 144.148 212.917 144.115 213.776 144.115 214.602 144.776 214.635 145.701 214.668 146.626 213.941 147.386 213.049 147.419 212.157 147.452 211.265 147.485 210.372 147.551 207.993 147.684 205.614 147.816 203.201 148.014 203.168 148.014 203.102 148.014 203.069 148.014ZM104.624 146.791C104.36 146.791 104.096 146.725 103.831 146.593 103.038 146.164 102.741 145.172 103.17 144.346 103.435 143.883 103.666 143.421 103.93 142.991 105.285 140.711 106.971 138.431 109.086 135.985 109.68 135.291 110.738 135.225 111.432 135.82 112.126 136.415 112.192 137.472 111.597 138.166 109.581 140.447 108.028 142.595 106.772 144.676 106.541 145.106 106.277 145.503 106.078 145.932 105.781 146.494 105.219 146.791 104.624 146.791ZM117.215 131.59C116.785 131.59 116.389 131.425 116.058 131.128 115.397 130.5 115.397 129.442 116.058 128.781 117.843 126.964 119.892 124.882 121.742 122.668 122.04 122.304 122.337 121.941 122.635 121.577 123.196 120.85 124.254 120.751 124.948 121.313 125.675 121.875 125.774 122.932 125.212 123.626 124.915 124.023 124.584 124.386 124.254 124.783 122.337 127.063 120.222 129.211 118.372 131.061 118.074 131.425 117.645 131.59 117.215 131.59ZM129.409 116.058C129.145 116.058 128.847 115.992 128.616 115.86 127.823 115.431 127.525 114.406 127.955 113.613 129.508 110.804 130.83 107.863 131.921 104.823 132.218 103.963 133.176 103.534 134.036 103.831 134.895 104.129 135.324 105.087 135.027 105.946 133.87 109.152 132.482 112.258 130.83 115.199 130.566 115.761 130.004 116.058 129.409 116.058ZM136.117 97.4864C136.018 97.4864 135.919 97.4864 135.82 97.4534 134.928 97.2881 134.333 96.4289 134.498 95.5036 135.093 92.3643 135.457 89.1257 135.556 85.9202 135.589 84.9949 136.283 84.3671 137.274 84.334 138.199 84.3671 138.893 85.1271 138.86 86.0524 138.761 89.4231 138.365 92.8269 137.737 96.1646 137.572 96.9246 136.878 97.4864 136.117 97.4864ZM67.8439 91.9016C67.7778 91.9016 67.7448 91.9016 67.6787 91.9016 66.7865 91.8025 66.0925 91.0094 66.1916 90.1171 66.423 87.6717 66.4891 85.9533 66.5221 84.4662 66.5882 83.0122 66.6212 81.7564 66.7865 80.2363 66.8856 79.344 67.7118 78.6831 68.604 78.7822 69.4963 78.8814 70.1572 79.7076 70.058 80.5998 69.8928 82.0208 69.8598 83.2435 69.8267 84.5984 69.7606 86.1516 69.6945 87.9361 69.4632 90.4476 69.4302 91.2407 68.7031 91.9016 67.8439 91.9016ZM136.712 77.7248C135.886 77.7248 135.192 77.1299 135.06 76.2707 134.63 73.0653 133.969 69.8928 133.044 66.8526 132.78 65.9933 133.276 65.0681 134.135 64.8037 134.994 64.5063 135.919 65.035 136.184 65.8942 137.175 69.0997 137.902 72.4374 138.332 75.8411 138.464 76.7334 137.803 77.5595 136.911 77.6917 136.878 77.7248 136.778 77.7248 136.712 77.7248ZM70.3885 72.3382C70.2233 72.3382 70.025 72.3052 69.8598 72.2391 69.0006 71.9417 68.5379 71.0164 68.8023 70.1572 69.8598 66.9847 71.7104 63.9775 74.354 61.2016 74.9819 60.5407 76.0394 60.5077 76.7003 61.1356 77.3613 61.7634 77.3943 62.8209 76.7664 63.4818 74.4532 65.9273 72.8339 68.5049 71.9417 71.2147 71.7434 71.9086 71.0825 72.3382 70.3885 72.3382ZM129.574 59.8468C129.211 59.8468 128.847 59.7146 128.55 59.4832 128.087 59.1197 127.525 58.6571 126.931 58.1614 125.411 56.9056 122.271 54.328 121.412 54.0637 120.553 53.7993 119.892 52.874 120.123 51.9817 120.354 51.1225 121.148 50.5608 122.007 50.7921L121.577 52.3783 122.271 50.8912C123.692 51.2878 125.972 53.1053 129.013 55.6168 129.607 56.0795 130.136 56.5421 130.599 56.9056 131.326 57.4674 131.425 58.5249 130.863 59.2189 130.533 59.6154 130.07 59.8468 129.574 59.8468ZM83.4418 57.9962C82.8469 57.9962 82.2851 57.6987 81.9877 57.137 81.5581 56.3438 81.8556 55.3194 82.6487 54.8898 85.788 53.1714 89.1588 51.9487 92.4303 51.3539 93.3226 51.1886 94.1818 51.7835 94.347 52.6757 94.5123 53.568 93.9174 54.4272 93.0252 54.5924 90.0841 55.1211 87.0438 56.2447 84.2349 57.7979 84.0036 57.9301 83.7061 57.9962 83.4418 57.9962ZM102.278 52.6096C101.716 52.6096 101.188 52.3122 100.857 51.8165 100.394 51.0234 100.626 50.032 101.419 49.5363 102.675 48.7763 104.162 48.0492 107.169 48.0492 108.557 48.0492 110.209 48.2145 112.192 48.5449 113.084 48.6771 113.712 49.5363 113.547 50.4616 113.382 51.3539 112.556 51.9817 111.63 51.8165 109.846 51.5191 108.359 51.3869 107.169 51.3869 104.988 51.3869 104.063 51.8496 103.137 52.4113 102.873 52.5435 102.576 52.6096 102.278 52.6096Z" fill="#231F20" transform="matrix(0.707107 -0.707107 0.707711 0.707711 679.75 183.298)"/></g></g></g></g></svg>